<svg width="0" height="0" fill="none" style="visibility: hidden; position: absolute;" aria-hidden="true">
    <symbol id="facebook" xmlns="http://www.w3.org/2000/svg" viewBox="0,0,256,256">
        <g fill-rule="nonzero" stroke="none" stroke-width="1" stroke-linecap="butt" stroke-linejoin="miter" stroke-miterlimit="10" stroke-dasharray="" stroke-dashoffset="0" font-family="none" font-weight="none" font-size="none" text-anchor="none" style="mix-blend-mode: normal">
            <g transform="scale(5.12,5.12)">
                <path d="M25,2c-12.682,0 -23,10.317 -23,23c0,12.683 10.318,23 23,23c12.683,0 23,-10.317 23,-23c0,-12.683 -10.317,-23 -23,-23zM32,16h-3.29c-1.938,0 -2.71,0.455 -2.71,1.806v3.194h6l-1,5h-5v13h-6v-13h-3v-5h3v-2.774c0,-4.225 1.686,-7.226 6.581,-7.226c2.622,0 5.419,1 5.419,1z"></path>
            </g>
        </g>
    </symbol>
    <symbol id="in"  xmlns="http://www.w3.org/2000/svg" viewBox="0 0 50 50">
        <path d="M41,4H9C6.24,4,4,6.24,4,9v32c0,2.76,2.24,5,5,5h32c2.76,0,5-2.24,5-5V9C46,6.24,43.76,4,41,4z M17,20v19h-6V20H17z M11,14.47c0-1.4,1.2-2.47,3-2.47s2.93,1.07,3,2.47c0,1.4-1.12,2.53-3,2.53C12.2,17,11,15.87,11,14.47z M39,39h-6c0,0,0-9.26,0-10 c0-2-1-4-3.5-4.04h-0.08C27,24.96,26,27.02,26,29c0,0.91,0,10,0,10h-6V20h6v2.56c0,0,1.93-2.56,5.81-2.56 c3.97,0,7.19,2.73,7.19,8.26V39z"/>
    </symbol>
    <symbol id="instagram" xmlns="http://www.w3.org/2000/svg" viewBox="0,0,256,256">
        <g  fill-rule="nonzero" stroke="none" stroke-width="1" stroke-linecap="butt" stroke-linejoin="miter" stroke-miterlimit="10" stroke-dasharray="" stroke-dashoffset="0" font-family="none" font-weight="none" font-size="none" text-anchor="none" style="mix-blend-mode: normal">
            <path d="M128,256c-70.69245,0 -128,-57.30755 -128,-128v0c0,-70.69245 57.30755,-128 128,-128v0c70.69245,0 128,57.30755 128,128v0c0,70.69245 -57.30755,128 -128,128z" id="shape__instagram"></path>
        </g>
        <g fill="#ffffff" fill-rule="nonzero" stroke="none" stroke-width="1" stroke-linecap="butt" stroke-linejoin="miter" stroke-miterlimit="10" stroke-dasharray="" stroke-dashoffset="0" font-family="none" font-weight="none" font-size="none" text-anchor="none" style="mix-blend-mode: normal">
            <g transform="scale(10.66667,10.66667)">
                <path d="M8,3c-2.761,0 -5,2.239 -5,5v8c0,2.761 2.239,5 5,5h8c2.761,0 5,-2.239 5,-5v-8c0,-2.761 -2.239,-5 -5,-5zM18,5c0.552,0 1,0.448 1,1c0,0.552 -0.448,1 -1,1c-0.552,0 -1,-0.448 -1,-1c0,-0.552 0.448,-1 1,-1zM12,7c2.761,0 5,2.239 5,5c0,2.761 -2.239,5 -5,5c-2.761,0 -5,-2.239 -5,-5c0,-2.761 2.239,-5 5,-5zM12,9c-1.65685,0 -3,1.34315 -3,3c0,1.65685 1.34315,3 3,3c1.65685,0 3,-1.34315 3,-3c0,-1.65685 -1.34315,-3 -3,-3z"></path>
            </g>
        </g>
    </symbol>
    <symbol id="twitter" xmlns="http://www.w3.org/2000/svg" viewBox="0,0,256,256">
        <g  fill-rule="nonzero" stroke="none" stroke-width="1" stroke-linecap="butt" stroke-linejoin="miter" stroke-miterlimit="10" stroke-dasharray="" stroke-dashoffset="0" font-family="none" font-weight="none" font-size="none" text-anchor="none" style="mix-blend-mode: normal">
            <g transform="scale(5.12,5.12)">
                <path d="M25,2c-12.683,0 -23,10.317 -23,23c0,12.683 10.317,23 23,23c12.683,0 23,-10.317 23,-23c0,-12.683 -10.317,-23 -23,-23zM36.237,20.524c0.01,0.236 0.016,0.476 0.016,0.717c0,7.318 -5.573,15.759 -15.762,15.759c-3.128,0 -6.041,-0.917 -8.491,-2.489c0.433,0.052 0.872,0.077 1.321,0.077c2.596,0 4.985,-0.884 6.879,-2.37c-2.424,-0.044 -4.468,-1.649 -5.175,-3.847c0.339,0.065 0.686,0.1 1.044,0.1c0.505,0 0.995,-0.067 1.458,-0.195c-2.532,-0.511 -4.441,-2.747 -4.441,-5.432c0,-0.024 0,-0.047 0,-0.07c0.747,0.415 1.6,0.665 2.509,0.694c-1.488,-0.995 -2.464,-2.689 -2.464,-4.611c0,-1.015 0.272,-1.966 0.749,-2.786c2.733,3.351 6.815,5.556 11.418,5.788c-0.095,-0.406 -0.145,-0.828 -0.145,-1.262c0,-3.059 2.48,-5.539 5.54,-5.539c1.593,0 3.032,0.672 4.042,1.749c1.261,-0.248 2.448,-0.709 3.518,-1.343c-0.413,1.292 -1.292,2.378 -2.437,3.064c1.122,-0.136 2.188,-0.432 3.183,-0.873c-0.742,1.111 -1.681,2.088 -2.762,2.869z"></path>
            </g>
        </g>
    </symbol>
</svg>